<mxfile host="app.diagrams.net" agent="Mozilla/5.0 (Windows NT 10.0; Win64; x64) AppleWebKit/537.36 (KHTML, like Gecko) Chrome/134.0.0.0 Safari/537.36" version="26.1.1">
  <diagram name="PÃ¡gina-1" id="vRBl0hB1UAZiLAmxsR0D">
    <mxGraphModel dx="989" dy="532" grid="1" gridSize="10" guides="1" tooltips="1" connect="1" arrows="1" fold="1" page="1" pageScale="1" pageWidth="827" pageHeight="1169" math="0" shadow="0">
      <root>
        <mxCell id="0" />
        <mxCell id="1" parent="0" />
        <mxCell id="KKe_4QRHj8fc0fiDWFV1-3" value="" style="edgeStyle=orthogonalEdgeStyle;rounded=0;orthogonalLoop=1;jettySize=auto;html=1;" edge="1" parent="1" source="KKe_4QRHj8fc0fiDWFV1-1" target="KKe_4QRHj8fc0fiDWFV1-2">
          <mxGeometry relative="1" as="geometry" />
        </mxCell>
        <mxCell id="KKe_4QRHj8fc0fiDWFV1-1" value="Inicio" style="ellipse;whiteSpace=wrap;html=1;" vertex="1" parent="1">
          <mxGeometry x="333" y="70" width="120" height="80" as="geometry" />
        </mxCell>
        <mxCell id="KKe_4QRHj8fc0fiDWFV1-5" value="" style="edgeStyle=orthogonalEdgeStyle;rounded=0;orthogonalLoop=1;jettySize=auto;html=1;" edge="1" parent="1" source="KKe_4QRHj8fc0fiDWFV1-2" target="KKe_4QRHj8fc0fiDWFV1-4">
          <mxGeometry relative="1" as="geometry" />
        </mxCell>
        <mxCell id="KKe_4QRHj8fc0fiDWFV1-2" value="Crear Usuario" style="rounded=1;whiteSpace=wrap;html=1;" vertex="1" parent="1">
          <mxGeometry x="333" y="200" width="120" height="60" as="geometry" />
        </mxCell>
        <mxCell id="KKe_4QRHj8fc0fiDWFV1-30" value="" style="edgeStyle=orthogonalEdgeStyle;rounded=0;orthogonalLoop=1;jettySize=auto;html=1;" edge="1" parent="1" source="KKe_4QRHj8fc0fiDWFV1-4" target="KKe_4QRHj8fc0fiDWFV1-17">
          <mxGeometry relative="1" as="geometry" />
        </mxCell>
        <mxCell id="KKe_4QRHj8fc0fiDWFV1-4" value="Usuario creado?" style="rhombus;whiteSpace=wrap;html=1;" vertex="1" parent="1">
          <mxGeometry x="353" y="300" width="80" height="80" as="geometry" />
        </mxCell>
        <mxCell id="KKe_4QRHj8fc0fiDWFV1-7" value="" style="edgeStyle=orthogonalEdgeStyle;rounded=0;orthogonalLoop=1;jettySize=auto;html=1;exitX=1;exitY=0.5;exitDx=0;exitDy=0;entryX=1.003;entryY=0.423;entryDx=0;entryDy=0;entryPerimeter=0;" edge="1" parent="1" source="KKe_4QRHj8fc0fiDWFV1-4" target="KKe_4QRHj8fc0fiDWFV1-2">
          <mxGeometry relative="1" as="geometry">
            <mxPoint x="463" y="330" as="sourcePoint" />
            <mxPoint x="463" y="370" as="targetPoint" />
            <Array as="points">
              <mxPoint x="493" y="340" />
              <mxPoint x="493" y="225" />
            </Array>
          </mxGeometry>
        </mxCell>
        <mxCell id="KKe_4QRHj8fc0fiDWFV1-8" value="No" style="text;html=1;align=center;verticalAlign=middle;resizable=0;points=[];autosize=1;strokeColor=none;fillColor=none;" vertex="1" parent="1">
          <mxGeometry x="443" y="310" width="40" height="30" as="geometry" />
        </mxCell>
        <mxCell id="KKe_4QRHj8fc0fiDWFV1-13" value="Registrar Compra" style="whiteSpace=wrap;html=1;" vertex="1" parent="1">
          <mxGeometry x="333" y="510" width="120" height="60" as="geometry" />
        </mxCell>
        <mxCell id="KKe_4QRHj8fc0fiDWFV1-26" value="" style="edgeStyle=orthogonalEdgeStyle;rounded=0;orthogonalLoop=1;jettySize=auto;html=1;" edge="1" parent="1" source="KKe_4QRHj8fc0fiDWFV1-17" target="KKe_4QRHj8fc0fiDWFV1-25">
          <mxGeometry relative="1" as="geometry" />
        </mxCell>
        <mxCell id="KKe_4QRHj8fc0fiDWFV1-31" value="" style="edgeStyle=orthogonalEdgeStyle;rounded=0;orthogonalLoop=1;jettySize=auto;html=1;" edge="1" parent="1" source="KKe_4QRHj8fc0fiDWFV1-17" target="KKe_4QRHj8fc0fiDWFV1-13">
          <mxGeometry relative="1" as="geometry" />
        </mxCell>
        <mxCell id="KKe_4QRHj8fc0fiDWFV1-17" value="Producto creado?" style="rhombus;whiteSpace=wrap;html=1;" vertex="1" parent="1">
          <mxGeometry x="353" y="410" width="80" height="80" as="geometry" />
        </mxCell>
        <mxCell id="KKe_4QRHj8fc0fiDWFV1-25" value="Crear Producto" style="whiteSpace=wrap;html=1;" vertex="1" parent="1">
          <mxGeometry x="493" y="420" width="120" height="60" as="geometry" />
        </mxCell>
        <mxCell id="KKe_4QRHj8fc0fiDWFV1-27" value="No" style="text;html=1;align=center;verticalAlign=middle;resizable=0;points=[];autosize=1;strokeColor=none;fillColor=none;" vertex="1" parent="1">
          <mxGeometry x="429" y="410" width="40" height="30" as="geometry" />
        </mxCell>
        <mxCell id="KKe_4QRHj8fc0fiDWFV1-28" value="Si" style="text;html=1;align=center;verticalAlign=middle;resizable=0;points=[];autosize=1;strokeColor=none;fillColor=none;" vertex="1" parent="1">
          <mxGeometry x="403" y="480" width="30" height="30" as="geometry" />
        </mxCell>
        <mxCell id="KKe_4QRHj8fc0fiDWFV1-29" value="Si" style="text;html=1;align=center;verticalAlign=middle;resizable=0;points=[];autosize=1;strokeColor=none;fillColor=none;" vertex="1" parent="1">
          <mxGeometry x="399" y="368" width="30" height="30" as="geometry" />
        </mxCell>
        <mxCell id="KKe_4QRHj8fc0fiDWFV1-33" style="edgeStyle=orthogonalEdgeStyle;rounded=0;orthogonalLoop=1;jettySize=auto;html=1;entryX=1;entryY=0.5;entryDx=0;entryDy=0;" edge="1" parent="1" source="KKe_4QRHj8fc0fiDWFV1-25" target="KKe_4QRHj8fc0fiDWFV1-13">
          <mxGeometry relative="1" as="geometry">
            <mxPoint x="453" y="548" as="targetPoint" />
            <Array as="points">
              <mxPoint x="550" y="540" />
            </Array>
          </mxGeometry>
        </mxCell>
      </root>
    </mxGraphModel>
  </diagram>
</mxfile>
